<svg viewBox="0 0 152 64" fill="none" xmlns="http://www.w3.org/2000/svg">
<path d="M32.0759 41.4766C30.5389 42.3397 28.8459 42.9758 26.9973 43.43C25.1483 43.8842 23.1882 44.0887 21.1166 44.0887C14.7684 44.0887 9.68969 42.09 5.88062 38.0922C2.07154 34.0945 0.155945 28.7564 0.155945 22.0784C0.155945 18.4216 0.735019 15.1731 1.89345 12.2886C3.0516 9.4038 4.78911 6.95056 7.10569 4.90625C8.95465 3.27085 11.0483 2.04465 13.387 1.24947C15.7266 0.431626 18.3103 0.0227051 21.1169 0.0227051C27.4431 0.0227051 32.5217 2.02171 36.3532 6.0421C40.1844 10.0625 42.0779 15.4005 42.0779 22.0784C42.0779 24.8723 41.7659 27.3938 41.1199 29.6649C40.4739 31.9366 39.4939 33.958 38.1574 35.7979C39.3603 36.8655 40.6523 37.706 42.0555 38.342C43.4589 38.978 44.9735 39.3643 46.5996 39.5458L43.5034 47.0644C41.1645 46.8373 39.0263 46.2466 37.1104 45.2925C35.1948 44.3614 33.5021 43.0893 32.0762 41.4766H32.0759ZM21.1166 35.2757C24.4136 35.2757 26.9752 34.1171 28.8017 31.8001C30.6507 29.4834 31.5638 26.2579 31.5638 22.101C31.5638 17.9444 30.628 14.6963 28.7793 12.3792C26.9303 10.0172 24.3687 8.85867 21.1169 8.85867C17.8645 8.85867 15.3253 10.0396 13.4542 12.4022C11.5829 14.7416 10.6473 17.99 10.6473 22.1013C10.6473 26.2126 11.5832 29.4378 13.4318 31.7778C15.2808 34.1169 17.8424 35.2757 21.1169 35.2757H21.1166Z" fill="#1E8D44"/>
<path d="M84.5338 33.4132C82.5516 37.0017 80.0566 39.6821 77.094 41.4766C74.109 43.2712 70.6567 44.157 66.6914 44.157C60.4546 44.157 55.5095 42.158 51.8564 38.1829C48.1811 34.2081 46.3322 28.8474 46.3322 22.1013C46.3322 15.4912 48.2478 10.1534 52.079 6.1104C55.9102 2.06707 60.9446 0.0454102 67.1814 0.0454102C71.1019 0.0454102 74.51 0.954154 77.4057 2.77136C80.3016 4.58828 82.5513 7.22304 84.1549 10.6759L76.1588 14.7646C75.223 12.7426 73.9979 11.2211 72.4609 10.1761C70.9239 9.13114 69.1421 8.60895 67.1151 8.60895C63.952 8.60895 61.457 9.81249 59.6084 12.1978C57.7594 14.5828 56.8463 17.8762 56.8463 22.0784C56.8463 26.3035 57.7594 29.597 59.586 31.9367C61.4125 34.2761 63.952 35.4346 67.2486 35.4346C69.3202 35.4346 71.1022 34.9348 72.6168 33.958C74.1317 32.9587 75.4013 31.4822 76.4038 29.4834L84.5341 33.4129L84.5338 33.4132ZM102.777 44.0887C97.8097 44.0887 93.8001 42.5669 90.7709 39.5232C87.7414 36.4795 86.2268 32.4589 86.2268 27.4391C86.2268 22.4647 87.7414 18.4216 90.793 15.355C93.8447 12.2887 97.8321 10.7668 102.799 10.7668C107.811 10.7668 111.843 12.2887 114.873 15.355C117.902 18.4216 119.416 22.442 119.416 27.4391C119.416 32.4362 117.879 36.4566 114.827 39.5006C111.776 42.5669 107.766 44.0887 102.777 44.0887H102.777ZM95.716 27.4391C95.716 30.301 96.3617 32.5498 97.6316 34.2308C98.9236 35.9115 100.639 36.752 102.777 36.752C104.938 36.752 106.653 35.9115 107.945 34.2308C109.237 32.5498 109.883 30.2783 109.883 27.4391C109.883 24.5999 109.237 22.3285 107.967 20.6248C106.675 18.9438 104.96 18.1036 102.799 18.1036C100.661 18.1036 98.9681 18.9668 97.6761 20.6701C96.3617 22.3738 95.716 24.6452 95.716 27.4391ZM123.47 43.0667V11.7888H132.759V14.6963C133.962 13.4698 135.299 12.5611 136.791 11.9706C138.283 11.3799 139.976 11.0619 141.847 11.0619C145.189 11.0619 147.684 12.1295 149.31 14.2874C150.936 16.4453 151.76 19.7387 151.76 24.191V43.0667H142.472V24.6455C142.472 22.5329 142.115 20.9881 141.38 19.9888C140.645 18.9891 139.487 18.5122 137.905 18.5122C136.034 18.5122 134.72 18.9668 133.918 19.8979C133.116 20.8293 132.737 22.3964 132.737 24.6452V43.0664H123.471L123.47 43.0667Z" fill="#2B6CAD"/>
<path d="M107.829 62.3629H104.642V49.5001H107.829V62.3629ZM109.878 62.3629V52.8793H112.792V53.7609C113.169 53.3891 113.588 53.1135 114.063 52.9346C114.531 52.7556 115.062 52.659 115.649 52.659C116.697 52.659 117.48 52.9827 117.99 53.6369C118.5 54.291 118.758 55.2898 118.758 56.6398V62.3626H115.845V56.7777C115.845 56.1371 115.733 55.669 115.502 55.366C115.272 55.063 114.909 54.9183 114.413 54.9183C113.826 54.9183 113.414 55.0559 113.162 55.3382C112.918 55.6206 112.792 56.0958 112.792 56.7777V62.3629H109.878ZM120.911 62.3629V54.7852H119.441V53.0351H120.91C120.89 52.8405 120.883 52.6947 120.876 52.6112C120.876 52.5211 120.869 52.4446 120.869 52.3682C120.869 51.3544 121.118 50.6249 121.61 50.1735C122.102 49.7289 122.914 49.4995 124.036 49.4995C124.286 49.4995 124.535 49.5137 124.792 49.5414C125.048 49.5692 125.312 49.6179 125.589 49.6873V51.6877H125.104C124.57 51.6877 124.223 51.75 124.05 51.882C123.877 52.0139 123.794 52.271 123.794 52.6669V53.0351H125.589V54.7852H123.801V62.3626H120.911V62.3629ZM130.815 63.0397C129.246 63.0397 127.98 62.5657 127.023 61.6176C126.067 60.6695 125.589 59.417 125.589 57.8532C125.589 56.3036 126.067 55.044 127.031 54.0888C127.987 53.1404 129.253 52.6593 130.815 52.6593C132.397 52.6593 133.671 53.1333 134.627 54.0888C135.584 55.044 136.062 56.2965 136.062 57.8532C136.062 59.4028 135.577 60.6553 134.613 61.6105C133.656 62.5657 132.391 63.0397 130.815 63.0397ZM128.585 57.8532C128.585 58.7447 128.789 59.4453 129.19 59.9686C129.598 60.4925 130.139 60.7544 130.815 60.7544C131.49 60.7544 132.039 60.4925 132.447 59.9689C132.855 59.445 133.059 58.7376 133.059 57.8603C133.059 56.9685 132.854 56.2682 132.454 55.7375C132.046 55.2136 131.504 54.952 130.822 54.952C130.147 54.952 129.612 55.221 129.204 55.7517C128.789 56.2753 128.585 56.9827 128.585 57.8529V57.8532Z" fill="#2B6CAD"/>
<path d="M147.45 62.0014C146.968 62.2664 146.437 62.4615 145.857 62.6011C145.277 62.7405 144.662 62.8033 144.012 62.8033C142.02 62.8033 140.426 62.1897 139.224 60.9623C138.029 59.735 137.428 58.0962 137.428 56.046C137.428 54.9231 137.61 53.9257 137.973 53.0402C138.337 52.1544 138.882 51.4014 139.609 50.7739C140.185 50.2729 140.855 49.8912 141.58 49.6511C142.313 49.3999 143.124 49.2744 144.004 49.2744C145.989 49.2744 147.583 49.8881 148.785 51.1225C149.987 52.3569 150.581 53.9957 150.581 56.046C150.581 56.9037 150.483 57.6777 150.28 58.3752C150.087 59.0535 149.772 59.6914 149.351 60.2581C149.717 60.5782 150.129 60.8415 150.574 61.0391C151.014 61.2345 151.49 61.3529 152 61.4086L151.028 63.7169C150.295 63.6472 149.624 63.4657 149.023 63.1732C148.426 62.8904 147.891 62.4921 147.45 62.0014ZM144.005 60.0975C145.039 60.0975 145.843 59.7418 146.416 59.0305C146.996 58.3194 147.283 57.3291 147.283 56.0528C147.283 54.7767 146.989 53.7793 146.409 53.068C145.829 52.3498 145.025 51.9941 143.998 51.9941C142.977 51.9941 142.181 52.3566 141.594 53.0821C141.007 53.8071 140.72 54.7977 140.72 56.0598C140.72 57.322 141.013 58.3123 141.594 59.0305C142.181 59.7418 142.984 60.0975 144.005 60.0975Z" fill="#1E8D44"/>
<path d="M94.3582 62.3756C93.727 62.3756 93.1992 62.0851 92.9293 61.5873H92.8629V62.3009H92.0031V56.0204H92.8964V58.5011H92.9667C93.2077 58.0075 93.7395 57.7087 94.3582 57.7087C95.5048 57.7087 96.2276 58.6047 96.2276 60.0402C96.2276 61.4711 95.5008 62.3756 94.3582 62.3756ZM94.1007 58.5093C93.3529 58.5093 92.8836 59.0983 92.8794 60.0442C92.8836 60.99 93.349 61.5751 94.1007 61.5751C94.8568 61.5751 95.3097 60.9982 95.3097 60.0402C95.3097 59.0901 94.8568 58.5093 94.1007 58.5093ZM97.5222 63.9394C97.4473 63.9394 97.2357 63.9309 97.1524 63.9187V63.1513C97.2233 63.1638 97.3602 63.168 97.4433 63.168C97.867 63.168 98.108 62.9936 98.2615 62.5373L98.3281 62.3176L96.6913 57.7835H97.6634L98.7977 61.3715H98.8681L99.9981 57.7835H100.945L99.2585 62.4875C98.8723 63.5868 98.4444 63.9394 97.5222 63.9394Z" fill="black"/>
</svg>
